<svg viewBox="0 0 32 32" id="Lager_95" data-name="Lager 95" xmlns="http://www.w3.org/2000/svg" fill="#f1e9e9"><g id="SVGRepo_bgCarrier" stroke-width="0"></g><g id="SVGRepo_tracerCarrier" stroke-linecap="round" stroke-linejoin="round"></g><g id="SVGRepo_iconCarrier"> <g id="Rectangle_1" data-name="Rectangle 1" transform="translate(4)" fill="none" stroke="#faffff" stroke-miterlimit="10" stroke-width="4"> <path d="M12,0h0A12,12,0,0,1,24,12V24a0,0,0,0,1,0,0H0a0,0,0,0,1,0,0V12A12,12,0,0,1,12,0Z" stroke="none"></path> <path d="M12,2h0A10,10,0,0,1,22,12v8a2,2,0,0,1-2,2H4a2,2,0,0,1-2-2V12A10,10,0,0,1,12,2Z" fill="none"></path> </g> <rect id="Rectangle_2" data-name="Rectangle 2" width="32" height="4" rx="2" transform="translate(0 20)" fill="#faffff"></rect> <path id="Path_9" data-name="Path 9" d="M16,32h0a4,4,0,0,1-4-4V26h8v2A4,4,0,0,1,16,32Z" fill="#faffff"></path> </g></svg>